<svg xmlns="http://www.w3.org/2000/svg" xmlns:xlink="http://www.w3.org/1999/xlink" x="0px" y="0px" width="193.69px" height="29.93px" viewBox="0 0 193.69 29.93" style="enable-background:new 0 0 193.69 29.93;" xml:space="preserve" fill="#fff">
    <path d="M16.91,5.29c2.05,1.09,3.63,2.61,4.75,4.57c1.12,1.96,1.68,4.22,1.68,6.79c0,2.54-0.56,4.8-1.68,6.77   c-1.12,1.97-2.71,3.5-4.77,4.59c-2.06,1.09-4.45,1.63-7.16,1.63H0V3.66h9.73C12.47,3.66,14.86,4.21,16.91,5.29z M14.91,22.2   c1.33-1.31,2-3.16,2-5.55s-0.67-4.26-2-5.59c-1.33-1.33-3.19-2-5.59-2h-3v15.1h3C11.72,24.16,13.58,23.51,14.91,22.2z"></path>
    <path d="M46.25,20.83H31.93c0.1,1.28,0.51,2.26,1.24,2.94c0.73,0.68,1.62,1.02,2.68,1.02c1.58,0,2.68-0.67,3.29-2h6.73   c-0.35,1.36-0.97,2.58-1.87,3.66c-0.9,1.09-2.03,1.94-3.39,2.55c-1.36,0.62-2.87,0.92-4.55,0.92c-2.02,0-3.82-0.43-5.4-1.29   s-2.81-2.1-3.7-3.7c-0.89-1.6-1.33-3.48-1.33-5.62c0-2.15,0.44-4.02,1.31-5.62c0.88-1.6,2.1-2.84,3.68-3.7   c1.58-0.86,3.39-1.29,5.44-1.29c2,0,3.77,0.42,5.33,1.26c1.55,0.84,2.77,2.04,3.64,3.59c0.88,1.55,1.31,3.37,1.31,5.44   C46.36,19.57,46.32,20.19,46.25,20.83z M39.89,17.32c0-1.09-0.37-1.95-1.11-2.59c-0.74-0.64-1.67-0.96-2.77-0.96   c-1.06,0-1.96,0.31-2.68,0.92c-0.73,0.62-1.18,1.49-1.35,2.63H39.89z"></path>
    <path d="M70.08,8.99v20.65h-6.33v-2.81c-0.64,0.91-1.51,1.65-2.61,2.2c-1.1,0.55-2.31,0.83-3.64,0.83c-1.58,0-2.97-0.35-4.18-1.05   c-1.21-0.7-2.15-1.72-2.81-3.05c-0.67-1.33-1-2.9-1-4.7V8.99h6.29V20.2c0,1.38,0.36,2.45,1.07,3.22c0.71,0.76,1.68,1.15,2.89,1.15   c1.23,0,2.21-0.38,2.92-1.15s1.07-1.84,1.07-3.22V8.99H70.08z"></path>
    <path d="M86.84,29.64l-3.96-5.73l-3.33,5.73H72.7l6.81-10.54l-6.99-10.1h7.1l3.96,5.7l3.33-5.7h6.84l-6.92,10.4l7.1,10.25H86.84z"></path>
    <path d="M117.47,29.64l-5.4-9.81h-1.52v9.81h-6.33V3.66h10.62c2.05,0,3.79,0.36,5.24,1.07c1.44,0.72,2.52,1.7,3.24,2.94   c0.72,1.25,1.07,2.63,1.07,4.16c0,1.73-0.49,3.27-1.46,4.62c-0.97,1.36-2.41,2.32-4.31,2.89l5.99,10.29H117.47z M110.55,15.35h3.92   c1.16,0,2.03-0.28,2.61-0.85c0.58-0.57,0.87-1.37,0.87-2.41c0-0.99-0.29-1.76-0.87-2.33c-0.58-0.57-1.45-0.85-2.61-0.85h-3.92   V15.35z"></path>
    <path d="M128.81,5.86c-0.7-0.65-1.05-1.46-1.05-2.42c0-0.99,0.35-1.81,1.05-2.46c0.7-0.65,1.61-0.98,2.72-0.98   c1.09,0,1.98,0.33,2.68,0.98c0.7,0.65,1.05,1.47,1.05,2.46c0,0.96-0.35,1.77-1.05,2.42c-0.7,0.65-1.6,0.98-2.68,0.98   C130.42,6.85,129.52,6.52,128.81,5.86z M134.68,8.99v20.65h-6.33V8.99H134.68z"></path>
    <path d="M158.62,20.83H144.3c0.1,1.28,0.51,2.26,1.24,2.94c0.73,0.68,1.62,1.02,2.68,1.02c1.58,0,2.68-0.67,3.29-2h6.73   c-0.35,1.36-0.97,2.58-1.87,3.66c-0.9,1.09-2.03,1.94-3.38,2.55c-1.36,0.62-2.87,0.92-4.55,0.92c-2.02,0-3.82-0.43-5.4-1.29   c-1.58-0.86-2.81-2.1-3.7-3.7c-0.89-1.6-1.33-3.48-1.33-5.62c0-2.15,0.44-4.02,1.31-5.62c0.88-1.6,2.1-2.84,3.68-3.7   c1.58-0.86,3.39-1.29,5.44-1.29c2,0,3.77,0.42,5.33,1.26c1.55,0.84,2.77,2.04,3.64,3.59c0.88,1.55,1.31,3.37,1.31,5.44   C158.73,19.57,158.69,20.19,158.62,20.83z M152.25,17.32c0-1.09-0.37-1.95-1.11-2.59c-0.74-0.64-1.67-0.96-2.77-0.96   c-1.06,0-1.96,0.31-2.68,0.92c-0.73,0.62-1.18,1.49-1.35,2.63H152.25z"></path>
    <path d="M180.43,11.12c1.44,1.57,2.17,3.72,2.17,6.46v12.06h-6.29V18.43c0-1.38-0.36-2.45-1.07-3.22   c-0.72-0.76-1.68-1.15-2.89-1.15c-1.21,0-2.17,0.38-2.89,1.15c-0.72,0.77-1.07,1.84-1.07,3.22v11.21h-6.33V8.99h6.33v2.74   c0.64-0.91,1.5-1.63,2.59-2.16c1.08-0.53,2.31-0.8,3.66-0.8C177.06,8.77,178.99,9.55,180.43,11.12z"></path>
    <path style="fill:#FFD42F;" d="M187.24,28.95c-0.7-0.65-1.05-1.46-1.05-2.42c0-0.99,0.35-1.81,1.05-2.48s1.61-1,2.72-1   c1.08,0,1.98,0.33,2.68,1s1.05,1.49,1.05,2.48c0,0.96-0.35,1.77-1.05,2.42c-0.7,0.65-1.6,0.98-2.68,0.98   C188.85,29.93,187.94,29.61,187.24,28.95z"></path>
  </svg>