<svg xmlns="http://www.w3.org/2000/svg" viewBox="0 0 205 205" width="205" height="205" xml:space="preserve" fill="#fff">
<path d="M73.3,5.4c1.4,0.2,2.6,0.7,3.6,1.6s1.8,2,2.3,3.5c0.5,1.4,0.7,2.8,0.4,4.2c-0.2,1.3-0.8,2.5-1.7,3.6  c-0.9,1-2.2,1.8-3.7,2.4l-5.5,2L63.4,7.9l5.5-2C70.5,5.4,71.9,5.2,73.3,5.4z M75.7,15.3c0.5-1,0.5-2.2,0-3.5  c-0.5-1.3-1.2-2.3-2.3-2.7c-1-0.5-2.2-0.5-3.6,0l-1.7,0.6l3.1,8.5l1.7-0.6C74.3,17.1,75.2,16.3,75.7,15.3z"></path>
<path d="M99.8,9.8l-8.5,1c0.1,0.8,0.5,1.3,0.9,1.7c0.5,0.4,1,0.5,1.7,0.4c0.9-0.1,1.6-0.6,1.8-1.4l4-0.5c-0.1,0.8-0.4,1.6-0.9,2.3  c-0.5,0.7-1.1,1.3-1.8,1.8c-0.8,0.5-1.7,0.7-2.7,0.9c-1.2,0.1-2.3,0-3.3-0.4c-1-0.4-1.8-1.1-2.5-2c-0.6-0.9-1-2-1.2-3.3  s0-2.4,0.4-3.4s1.1-1.8,1.9-2.5c0.9-0.6,1.9-1,3.2-1.1c1.2-0.1,2.3,0,3.3,0.4c1,0.4,1.8,1,2.4,1.9c0.6,0.9,1,1.9,1.2,3.2  C99.8,9.1,99.8,9.4,99.8,9.8z M95.7,8.2c-0.1-0.6-0.4-1.1-0.8-1.5c-0.5-0.3-1.1-0.5-1.7-0.4C92.6,6.4,92,6.6,91.7,7  c-0.4,0.4-0.6,1-0.6,1.7L95.7,8.2z"></path>
<path d="M121,4.1l-1.4,12.3l-3.8-0.4l0.2-1.7c-0.4,0.5-1,0.9-1.7,1.1c-0.7,0.3-1.4,0.3-2.2,0.3c-0.9-0.1-1.7-0.4-2.4-0.9  c-0.7-0.5-1.2-1.2-1.5-2c-0.3-0.8-0.4-1.8-0.3-2.9l0.8-7.2l3.8,0.4l-0.7,6.7c-0.1,0.8,0.1,1.5,0.4,2c0.4,0.5,0.9,0.8,1.6,0.9  c0.7,0.1,1.3-0.1,1.8-0.5c0.5-0.4,0.8-1,0.9-1.8l0.7-6.7L121,4.1z"></path>
<path d="M134,20.6l-1.1-4l-3,2.6l-3.9-1.4l5.9-4.6l-2-7.1l4,1.4l1.1,4l3-2.6l3.9,1.4l-6,4.5l2,7.2L134,20.6z"></path>
<path d="M159,35.4l1.2-6.6l-0.7-0.6l-3.7,4.6l-3-2.4l9.8-12.1l5,4c1,0.8,1.6,1.6,2,2.5s0.5,1.7,0.4,2.6c-0.1,0.9-0.5,1.6-1.1,2.3  c-0.7,0.8-1.5,1.3-2.4,1.6c-1,0.3-2,0.2-3.1-0.3l-1.1,7.1L159,35.4z M161.1,26.1l1.8,1.5c0.5,0.4,1.1,0.6,1.5,0.6  c0.5,0,0.9-0.3,1.3-0.8c0.4-0.5,0.5-0.9,0.5-1.4c-0.1-0.5-0.4-0.9-0.9-1.4l-1.8-1.5L161.1,26.1z"></path>
<path d="M179.3,38.5l-9.4,8l-2.5-2.9l9.4-8L179.3,38.5z M178.4,34.6c0-0.6,0.3-1.1,0.7-1.4c0.5-0.4,1-0.5,1.5-0.5  c0.6,0.1,1.1,0.4,1.5,0.9c0.4,0.5,0.6,1,0.6,1.6c0,0.6-0.3,1.1-0.7,1.4c-0.4,0.4-0.9,0.5-1.5,0.5c-0.6-0.1-1.1-0.3-1.5-0.8  C178.6,35.7,178.4,35.2,178.4,34.6z"></path>
<path d="M185.2,60.4l-4.3-7.4c-0.6,0.4-1,0.9-1.2,1.5c-0.1,0.6,0,1.1,0.3,1.7c0.5,0.8,1.1,1.2,2,1.1l2,3.5  c-0.8,0.2-1.6,0.3-2.5,0.1c-0.8-0.1-1.6-0.5-2.3-1c-0.7-0.5-1.3-1.2-1.8-2.1c-0.6-1.1-0.9-2.1-0.9-3.2c0-1.1,0.2-2.1,0.8-3  c0.6-0.9,1.4-1.7,2.5-2.4c1.1-0.6,2.2-1,3.3-1c1.1,0,2.1,0.2,3,0.8c0.9,0.6,1.7,1.4,2.3,2.4c0.6,1,0.9,2.1,0.9,3.1  c0,1.1-0.2,2-0.8,3c-0.5,0.9-1.4,1.7-2.4,2.3C185.8,60,185.5,60.2,185.2,60.4z M185.1,56c0.6-0.3,0.9-0.8,1-1.4  c0.1-0.6,0-1.2-0.3-1.7c-0.3-0.6-0.7-0.9-1.3-1.1c-0.5-0.2-1.1-0.2-1.8,0.1L185.1,56z"></path>
<path d="M197.2,76.8c-0.6,1.1-1.8,1.9-3.3,2.4l-6.9,2.1l-1.1-3.6l6.4-2c0.8-0.2,1.3-0.6,1.7-1.2c0.3-0.5,0.4-1.2,0.2-1.9  c-0.2-0.7-0.6-1.2-1.2-1.5c-0.6-0.3-1.2-0.3-2-0.1l-6.4,2l-1.1-3.6l11.9-3.6l1.1,3.6l-1.6,0.5c0.6,0.2,1.2,0.6,1.7,1.1  c0.5,0.5,0.9,1.2,1.1,2C198,74.4,197.9,75.7,197.2,76.8z"></path>
<path d="M197.8,109.2l-3.1-0.2l0.5-9.8l3.1,0.2L197.8,109.2z"></path>
<path d="M185.7,131.8l-1.8,4.6l-2.7-1.1l3.2-8.2l14.5,5.7l-1.4,3.5L185.7,131.8z" fill="#FFD42D"></path>
<path d="M177.3,143.9c1-0.5,2-0.8,3.1-0.7c1.1,0.1,2.2,0.4,3.3,1.2c1.1,0.7,1.8,1.5,2.4,2.6c0.5,1,0.7,2.1,0.6,3.2  c-0.1,1.1-0.5,2.2-1.2,3.2c-0.7,1-1.5,1.8-2.5,2.3c-1,0.5-2,0.8-3.1,0.7c-1.1-0.1-2.2-0.4-3.3-1.1c-1.1-0.7-1.8-1.6-2.3-2.6  c-0.5-1-0.7-2.1-0.6-3.2c0.1-1.1,0.5-2.2,1.2-3.2C175.5,145.2,176.3,144.4,177.3,143.9z M177.2,150c0.2,0.7,0.7,1.4,1.5,1.9  c0.8,0.5,1.6,0.8,2.3,0.6c0.7-0.1,1.3-0.5,1.7-1.1c0.4-0.6,0.5-1.3,0.4-2c-0.2-0.7-0.7-1.3-1.5-1.9c-0.8-0.5-1.6-0.8-2.3-0.7  c-0.7,0.1-1.3,0.5-1.7,1.1C177.2,148.6,177.1,149.3,177.2,150z" fill="#FFD42D"></path>
<path d="M172.9,168.5l-8.9-8.6l2.6-2.7l8.9,8.6L172.9,168.5z M176.7,167.3c0.6,0,1.1,0.2,1.5,0.6  c0.4,0.4,0.6,0.9,0.6,1.5c0,0.6-0.2,1.1-0.7,1.6c-0.5,0.5-1,0.7-1.5,0.8c-0.6,0-1.1-0.2-1.5-0.6c-0.4-0.4-0.6-0.9-0.6-1.5  c0-0.6,0.2-1.1,0.7-1.6C175.6,167.6,176.1,167.3,176.7,167.3z" fill="#FFD42D"></path>
<path d="M155.6,180.9c-1.3-0.3-2.4-1.1-3.3-2.4l-4.2-5.9l3.1-2.2l3.9,5.5c0.5,0.7,1,1.1,1.6,1.2c0.6,0.1,1.2,0,1.8-0.4  c0.6-0.4,0.9-0.9,1-1.6c0.1-0.6-0.1-1.3-0.6-1.9l-3.9-5.5l3.1-2.2l7.2,10.1l-3.1,2.2l-1-1.3c0,0.7-0.2,1.3-0.5,2  c-0.3,0.6-0.9,1.2-1.5,1.7C158.1,180.9,156.8,181.2,155.6,180.9z" fill="#FFD42D"></path>
<path d="M134.3,189.5c-0.2,1.1-0.7,1.9-1.3,2.7c-0.7,0.7-1.5,1.2-2.5,1.5c-0.8,0.2-1.5,0.2-2.3,0.1  c-0.7-0.2-1.4-0.5-1.9-0.9l1.5,5.6l-3.7,1l-4.2-15.9l3.7-1l0.5,1.7c0.2-0.7,0.6-1.3,1.1-1.8c0.5-0.5,1.2-0.9,2.1-1.1  c1-0.3,1.9-0.2,2.9,0.1c0.9,0.3,1.8,0.9,2.5,1.7c0.7,0.8,1.2,1.8,1.6,3.1C134.4,187.3,134.5,188.5,134.3,189.5z M126.5,190.4  c0.6,0.4,1.3,0.5,2.1,0.3c0.7-0.2,1.3-0.6,1.6-1.3c0.4-0.7,0.4-1.4,0.2-2.4c-0.2-0.9-0.7-1.6-1.3-2c-0.7-0.4-1.3-0.5-2.1-0.3  c-0.7,0.2-1.3,0.6-1.6,1.3c-0.4,0.7-0.4,1.5-0.2,2.4C125.4,189.4,125.8,190,126.5,190.4z" fill="#FFD42D"></path>
<path d="M110.6,202.3l-0.1-4.9l2.5-0.2l0.7,4.9L110.6,202.3z" fill="#FFD42D"></path>
<path d="M89.5,189l8.6,0.8c0-0.8-0.2-1.4-0.6-1.8c-0.4-0.4-0.9-0.7-1.5-0.8c-0.9-0.1-1.6,0.3-2.1,1l-4-0.4  c0.3-0.8,0.7-1.5,1.3-2.1c0.6-0.6,1.3-1,2.2-1.3c0.8-0.3,1.8-0.4,2.8-0.3c1.2,0.1,2.3,0.5,3.2,1.1c0.9,0.6,1.6,1.4,2,2.4  c0.4,1,0.6,2.2,0.5,3.4c-0.1,1.3-0.5,2.4-1.1,3.3c-0.6,0.9-1.4,1.6-2.4,2c-1,0.4-2.1,0.6-3.3,0.5c-1.2-0.1-2.2-0.5-3.1-1  c-0.9-0.6-1.5-1.4-2-2.3c-0.4-1-0.6-2.1-0.5-3.3C89.4,189.8,89.5,189.4,89.5,189z M94.8,199.4l3.6-1.5l-0.2,2.6l-3.6,1.4l-3.3-2.1  l0.2-2.6L94.8,199.4z M93.1,191.5c-0.1,0.6,0.1,1.2,0.5,1.6c0.4,0.4,0.9,0.7,1.6,0.7c0.6,0.1,1.2-0.1,1.7-0.4  c0.5-0.3,0.8-0.8,1-1.5L93.1,191.5z" fill="#FFD42D"></path>
<path d="M75.4,183.2l0.9-3.1l1.9,0.5c1.3,0.4,2.3,1,2.8,1.9c0.5,0.9,0.6,2,0.2,3.5l-1.4,4.7l1.4,0.4l-0.9,3l-1.4-0.4  l-0.9,2.9l-3.6-1.1l0.9-2.9l-2.4-0.7l0.9-3l2.4,0.7l1.4-4.8c0.1-0.4,0.1-0.6,0-0.8c-0.1-0.2-0.4-0.4-0.8-0.5L75.4,183.2z" fill="#FFD42D"></path>
<path d="M59.1,185.6c-0.8,0.1-1.5-0.1-2.3-0.5l1.8-3.6l0.9,0.5c0.8,0.4,1.6,0.6,2.2,0.4c0.6-0.2,1.1-0.7,1.6-1.6  l2.6-5.1l3.4,1.7l-5.5,11.1l-3.4-1.7l0.9-1.8C60.7,185.3,59.9,185.6,59.1,185.6z" fill="#FFD42D"></path>
<path d="M44.1,167.4l6.8,5.3c0.4-0.6,0.6-1.3,0.5-1.9c-0.1-0.6-0.4-1.1-0.9-1.5c-0.7-0.6-1.5-0.7-2.3-0.3l-3.2-2.5  c0.7-0.5,1.4-0.9,2.2-1.1c0.8-0.2,1.7-0.2,2.5,0c0.9,0.2,1.7,0.6,2.5,1.2c1,0.7,1.7,1.6,2.1,2.6c0.4,1,0.6,2,0.4,3.1  s-0.6,2.1-1.4,3.2c-0.8,1-1.7,1.7-2.7,2.2c-1,0.4-2,0.6-3.1,0.4c-1.1-0.2-2.1-0.6-3.1-1.4c-0.9-0.7-1.6-1.6-2.1-2.6  c-0.4-1-0.6-2-0.4-3c0.2-1.1,0.6-2.1,1.4-3.1C43.6,167.9,43.8,167.7,44.1,167.4z M45.8,171.4c-0.4,0.5-0.5,1.1-0.4,1.6  c0.1,0.6,0.4,1.1,1,1.5c0.5,0.4,1,0.6,1.6,0.5c0.6,0,1.1-0.3,1.6-0.7L45.8,171.4z" fill="#FFD42D"></path>
<path d="M27.5,155.4c-1.1,0.1-2-0.1-2.9-0.5c-0.9-0.4-1.6-1.1-2.1-1.9c-0.5-0.7-0.7-1.5-0.8-2.2  c-0.1-0.7,0.1-1.4,0.4-2l-1.5,0.9l-2-3.2l10.5-6.6l2,3.2l-1.5,0.9c0.7,0,1.4,0.2,2,0.6c0.7,0.4,1.2,0.9,1.7,1.7  c0.5,0.9,0.8,1.8,0.8,2.8c0,1-0.3,1.9-0.9,2.9c-0.6,0.9-1.4,1.7-2.5,2.4C29.6,154.9,28.6,155.3,27.5,155.4z M24.3,148.2  c-0.2,0.7-0.1,1.4,0.3,2.1c0.4,0.6,1,1,1.7,1.2c0.7,0.2,1.5,0,2.3-0.5c0.8-0.5,1.3-1.1,1.5-1.9c0.2-0.7,0.1-1.4-0.3-2.1  c-0.4-0.6-1-1-1.7-1.2c-0.7-0.2-1.5,0-2.3,0.5C25,146.8,24.5,147.5,24.3,148.2z" fill="#FFD42D"></path>
<path d="M11.6,126c0.6-1.1,1.7-1.9,3.3-2.5l6.9-2.3l1.2,3.6l-6.4,2.2c-0.8,0.3-1.3,0.7-1.6,1.2  c-0.3,0.6-0.3,1.2-0.1,1.9c0.2,0.7,0.6,1.2,1.2,1.4c0.6,0.3,1.3,0.3,2,0l6.4-2.2l1.2,3.6l-11.7,4l-1.2-3.6l1.6-0.5  c-0.6-0.2-1.2-0.5-1.7-1.1c-0.5-0.5-0.9-1.2-1.2-1.9C11,128.4,11,127.1,11.6,126z" fill="#FFD42D"></path>
<path d="M19.4,111.5c-0.4,1-1.1,1.8-2,2.5c-0.9,0.6-2,1-3.3,1.1c-1.3,0.1-2.4-0.1-3.4-0.5c-1-0.5-1.8-1.2-2.4-2.1  c-0.6-0.9-1-2-1.1-3.2c-0.1-1.2,0-2.3,0.5-3.3c0.4-1,1.1-1.9,2-2.5c0.9-0.7,2-1,3.3-1.2c1.3-0.1,2.4,0.1,3.4,0.5  c1,0.5,1.8,1.2,2.4,2.1c0.6,0.9,1,2,1.1,3.2C20,109.4,19.8,110.5,19.4,111.5z M15.6,106.7c-0.6-0.5-1.4-0.6-2.3-0.5  c-1,0.1-1.7,0.4-2.2,1c-0.5,0.5-0.7,1.2-0.6,1.9c0.1,0.7,0.4,1.3,1,1.8c0.6,0.4,1.4,0.6,2.4,0.5c1-0.1,1.7-0.4,2.2-0.9  c0.5-0.5,0.7-1.2,0.6-1.9C16.5,107.7,16.2,107.1,15.6,106.7z" fill="#FFD42D"></path>
<path d="M9.8,93.5c-0.9-0.6-1.5-1.4-1.9-2.2s-0.5-1.8-0.4-2.9c0.1-0.8,0.4-1.5,0.8-2.1c0.4-0.6,1-1.1,1.6-1.4l-5.7-0.8  l0.5-3.8l16.3,2.2l-0.5,3.8L18.6,86c0.5,0.4,0.9,1,1.2,1.7c0.3,0.7,0.3,1.5,0.2,2.3c-0.1,1-0.5,1.9-1.1,2.6  c-0.6,0.8-1.5,1.3-2.5,1.7c-1,0.3-2.2,0.4-3.4,0.3C11.7,94.5,10.6,94.1,9.8,93.5z M11.9,85.9c-0.6,0.4-1,1-1.1,1.8  c-0.1,0.7,0.1,1.4,0.5,2c0.5,0.6,1.2,1,2.1,1.1c0.9,0.1,1.7,0,2.3-0.5c0.6-0.4,1-1,1.1-1.8c0.1-0.7-0.1-1.4-0.6-2  c-0.5-0.6-1.2-1-2.1-1.1C13.3,85.3,12.5,85.5,11.9,85.9z" fill="#FFD42D"></path>
<path d="M9.6,70c-0.5,0.3-1,0.3-1.6,0.1c-0.6-0.2-1-0.5-1.2-1.1c-0.2-0.5-0.3-1.1,0-1.7C7,66.7,7.4,66.3,7.9,66  c0.5-0.3,1-0.3,1.6-0.1c0.5,0.2,0.9,0.5,1.2,1.1c0.2,0.5,0.3,1.1,0,1.7C10.5,69.3,10.1,69.8,9.6,70z M12.5,67.3l11.8,3.9l-1.2,3.6  l-11.8-3.9L12.5,67.3z" fill="#FFD42D"></path>
<path d="M22.9,48.7c1.2-0.3,2.6,0,4,0.8l6.3,3.6l-1.9,3.3L25.5,53c-0.7-0.4-1.4-0.5-2-0.4c-0.6,0.1-1.1,0.5-1.5,1.2  c-0.4,0.6-0.4,1.2-0.3,1.8c0.2,0.6,0.6,1.1,1.4,1.5l5.9,3.3l-1.9,3.3l-10.8-6.1l1.9-3.3l1.4,0.8c-0.3-0.6-0.4-1.3-0.4-2  c0-0.7,0.3-1.4,0.7-2.1C20.7,49.7,21.7,49,22.9,48.7z" fill="#FFD42D"></path>
<path d="M45.9,25.8l2.1,2.4l-7.4,6.4l-2.1-2.4L45.9,25.8z"></path>
</svg>